# xmcd
#
# Track frame offsets: 
#        150
#        10566
#        22895
#        34014
#        46068
#        57653
#        68895
#        78794
#        89864
#        103328
#
# Disc length: 1554 seconds
#
# Revision: 1
# Processed by: cddbd v1.5.2PL0 Copyright (c) Steve Scherf et al.
# Submitted via: ExactAudioCopy v0.95b4
#
DISCID=7806100a
DTITLE=Patsy Cline - Patsy Cline Collector's Edition - Disc 3
DYEAR=2007
DGENRE=Country
TTITLE0=Three Cigarettes in an Ashtray
TTITLE1=A Poor Man's Roses (Or Rich Man's Gold)
TTITLE2=Stop The World (And Let Me Off)
TTITLE3=Today, Tomorrow and Forever
TTITLE4=I've Loved and Lost Again
TTITLE5=Dear God
TTITLE6=Turn The Cards Slowly
TTITLE7=A Stranger In My Arms
TTITLE8=Life's Railway To Heaven
TTITLE9=If I Could See The World
EXTD=
EXTT0=
EXTT1=
EXTT2=
EXTT3=
EXTT4=
EXTT5=
EXTT6=
EXTT7=
EXTT8=
EXTT9=
PLAYORDER=
